<?xml version="1.0" encoding="utf-8"?>
<!-- Generator: Adobe Illustrator 19.0.0, SVG Export Plug-In . SVG Version: 6.00 Build 0)  -->
<svg version="1.1" id="Warstwa_1" xmlns="http://www.w3.org/2000/svg" xmlns:xlink="http://www.w3.org/1999/xlink" x="0px" y="0px"
	 width="960px" height="560px" viewBox="0 0 960 560" enable-background="new 0 0 960 560" xml:space="preserve">
<path id="XMLID_4_" fill="#FFFFFF" d="M241.8,252h646c13.8,0,25,11.2,25,25c0,13.8-11.2,25-25,25h-646c-13.8,0-25-11.2-25-25
	C216.8,263.2,228,252,241.8,252z"/>
<path id="XMLID_5_" fill="#FFFFFF" d="M661.1,3.4c6.7,0,13.3,2.7,18.3,7.9l232.9,249c9,9.6,9,24.4,0.1,34.1L679.4,546
	c-9.4,10.1-25.2,10.7-35.3,1.4c-10.1-9.4-10.7-25.2-1.4-35.3l217.1-234.5l-217-232c-9.4-10.1-8.9-25.9,1.2-35.3
	C648.8,5.6,655,3.4,661.1,3.4z"/>
</svg>
